{
  "source": "C:\\Users\\Peter\\Desktop\\stuff\\MIUN\\quantitative_research\\video_compression\\videos\\BVI-HD\\BVI-HD_CDVL_videos\\ORIG\\TreeTrunk_1920x1080_50fps.mp4",
  "output": "C:\\Users\\Peter\\Desktop\\stuff\\MIUN\\quantitative_research\\video_compression\\compressed_videos\\BVI-HD\\h264\\3\\TreeTrunk_1920x1080_50fps_h264.mp4",
  "codec": "h264",
  "ok": "Input #0, mov,mp4,m4a,3gp,3g2,mj2, from 'C:\\Users\\Peter\\Desktop\\stuff\\MIUN\\quantitative_research\\video_compression\\videos\\BVI-HD\\BVI-HD_CDVL_videos\\ORIG\\TreeTrunk_1920x1080_50fps.mp4':\n  Metadata:\n    major_brand     : isom\n    minor_version   : 512\n    compatible_brands: isomiso2avc1mp41\n    encoder         : Lavf54.28.101\n  Duration: 00:00:05.00, start: 0.000000, bitrate: 622415 kb/s\n  Stream #0:0[0x1](und): Video: h264 (High 4:4:4 Predictive) (avc1 / 0x31637661), yuv420p(progressive), 1920x1080, 622410 kb/s, 50 fps, 50 tbr, 50 tbn (default)\n    Metadata:\n      handler_name    : VideoHandler\n      vendor_id       : [0][0][0][0]\n[out#0/mp4 @ 000002cc4c7bf740] Codec AVOption b:a (set bitrate (in bits/s)) has not been used for any stream. The most likely reason is either wrong type (e.g. a video option with no video streams) or that it is a private option of some decoder which was not actually used for any stream.\nStream mapping:\n  Stream #0:0 -> #0:0 (h264 (native) -> h264 (libx264))\nPress [q] to stop, [?] for help\n[libx264 @ 000002cc4d410340] using cpu capabilities: MMX2 SSE2Fast SSSE3 SSE4.2 AVX FMA3 BMI2 AVX2\n[libx264 @ 000002cc4d410340] profile High, level 5.0, 4:2:0, 8-bit\n[libx264 @ 000002cc4d410340] 264 - core 165 r3222 b35605a - H.264/MPEG-4 AVC codec - Copyleft 2003-2025 - http://www.videolan.org/x264.html - options: cabac=1 ref=5 deblock=1:0:0 analyse=0x3:0x113 me=hex subme=8 psy=1 psy_rd=1.00:0.00 mixed_ref=1 me_range=16 chroma_me=1 trellis=2 8x8dct=1 cqm=0 deadzone=21,11 fast_pskip=1 chroma_qp_offset=-2 threads=18 lookahead_threads=3 sliced_threads=0 nr=0 decimate=1 interlaced=0 bluray_compat=0 constrained_intra=0 bframes=3 b_pyramid=2 b_adapt=1 b_bias=0 direct=3 weightb=1 open_gop=0 weightp=2 keyint=250 keyint_min=25 scenecut=40 intra_refresh=0 rc_lookahead=50 rc=cbr mbtree=1 bitrate=3000 ratetol=1.0 qcomp=0.60 qpmin=0 qpmax=69 qpstep=4 vbv_maxrate=3000 vbv_bufsize=3000 nal_hrd=none filler=0 ip_ratio=1.40 aq=1:1.00\nOutput #0, mp4, to 'C:\\Users\\Peter\\Desktop\\stuff\\MIUN\\quantitative_research\\video_compression\\compressed_videos\\BVI-HD\\h264\\3\\TreeTrunk_1920x1080_50fps_h264.mp4':\n  Metadata:\n    major_brand     : isom\n    minor_version   : 512\n    compatible_brands: isomiso2avc1mp41\n    encoder         : Lavf62.3.100\n  Stream #0:0(und): Video: h264 (avc1 / 0x31637661), yuv420p(tv, progressive), 1920x1080, q=2-31, 3000 kb/s, 50 fps, 12800 tbn (default)\n    Metadata:\n      encoder         : Lavc62.11.100 libx264\n      handler_name    : VideoHandler\n      vendor_id       : [0][0][0][0]\n    Side data:\n      cpb: bitrate max/min/avg: 3000000/0/3000000 buffer size: 3000000 vbv_delay: N/A\nframe=    0 fps=0.0 q=0.0 size=       0KiB time=N/A bitrate=N/A speed=N/A elapsed=0:00:01.34    \nframe=    0 fps=0.0 q=0.0 size=       0KiB time=N/A bitrate=N/A speed=N/A elapsed=0:00:02.11    \nframe=    0 fps=0.0 q=0.0 size=       0KiB time=N/A bitrate=N/A speed=N/A elapsed=0:00:02.73    \nframe=   12 fps=3.5 q=42.0 size=       0KiB time=00:00:00.12 bitrate=   3.2kbits/s speed=0.0349x elapsed=0:00:03.43    \nframe=   33 fps=8.1 q=39.0 size=       0KiB time=00:00:00.56 bitrate=   0.7kbits/s speed=0.137x elapsed=0:00:04.09    \nframe=   45 fps=9.6 q=39.0 size=       0KiB time=00:00:00.84 bitrate=   0.5kbits/s speed=0.178x elapsed=0:00:04.71    \nframe=   61 fps= 11 q=45.0 size=     256KiB time=00:00:01.14 bitrate=1839.9kbits/s speed=0.212x elapsed=0:00:05.36    \nframe=   81 fps= 13 q=46.0 size=     256KiB time=00:00:01.50 bitrate=1398.4kbits/s speed=0.249x elapsed=0:00:06.03    \nframe=  105 fps= 16 q=40.0 size=     512KiB time=00:00:01.98 bitrate=2118.5kbits/s speed=0.297x elapsed=0:00:06.67    \nframe=  125 fps= 17 q=43.0 size=     512KiB time=00:00:02.40 bitrate=1747.8kbits/s speed=0.323x elapsed=0:00:07.42    \nframe=  141 fps= 17 q=45.0 size=     768KiB time=00:00:02.70 bitrate=2330.3kbits/s speed=0.33x elapsed=0:00:08.19    \nframe=  161 fps= 18 q=47.0 size=     768KiB time=00:00:03.18 bitrate=1978.6kbits/s speed=0.357x elapsed=0:00:08.90    \nframe=  169 fps= 18 q=49.0 size=     768KiB time=00:00:03.34 bitrate=1883.8kbits/s speed=0.349x elapsed=0:00:09.55    \nframe=  181 fps= 18 q=50.0 size=    1024KiB time=00:00:03.58 bitrate=2343.3kbits/s speed=0.353x elapsed=0:00:10.14    \nframe=  205 fps= 19 q=48.0 size=    1280KiB time=00:00:04.00 bitrate=2621.5kbits/s speed=0.372x elapsed=0:00:10.74    \nframe=  221 fps= 19 q=48.0 size=    1280KiB time=00:00:04.38 bitrate=2394.1kbits/s speed=0.386x elapsed=0:00:11.35    \nframe=  239 fps= 20 q=-1.0 size=    1536KiB time=00:00:04.74 bitrate=2654.7kbits/s speed=0.398x elapsed=0:00:11.92    \n[mp4 @ 000002cc4c7bf840] Starting second pass: moving the moov atom to the beginning of the file\n[out#0/mp4 @ 000002cc4c7bf740] video:1660KiB audio:0KiB subtitle:0KiB other streams:0KiB global headers:0KiB muxing overhead: 0.227489%\nframe=  250 fps= 21 q=-1.0 Lsize=    1664KiB time=00:00:04.96 bitrate=2747.9kbits/s speed=0.409x elapsed=0:00:12.13    \n[libx264 @ 000002cc4d410340] frame I:1     Avg QP:37.54  size:107812\n[libx264 @ 000002cc4d410340] frame P:63    Avg QP:42.76  size: 21862\n[libx264 @ 000002cc4d410340] frame B:186   Avg QP:45.08  size:  1150\n[libx264 @ 000002cc4d410340] consecutive B-frames:  0.4%  0.8%  1.2% 97.6%\n[libx264 @ 000002cc4d410340] mb I  I16..4:  7.0% 83.1%  9.9%\n[libx264 @ 000002cc4d410340] mb P  I16..4:  0.3%  6.0%  0.1%  P16..4: 40.0%  7.1%  7.7%  0.0%  0.0%    skip:38.7%\n[libx264 @ 000002cc4d410340] mb B  I16..4:  0.0%  0.0%  0.0%  B16..8: 22.3%  0.1%  0.0%  direct: 0.0%  skip:77.5%  L0:49.4% L1:50.6% BI: 0.0%\n[libx264 @ 000002cc4d410340] 8x8 transform intra:91.7% inter:92.3%\n[libx264 @ 000002cc4d410340] direct mvs  spatial:94.6% temporal:5.4%\n[libx264 @ 000002cc4d410340] coded y,uvDC,uvAC intra: 75.2% 24.1% 1.9% inter: 5.4% 1.9% 0.0%\n[libx264 @ 000002cc4d410340] i16 v,h,dc,p: 19% 33%  8% 41%\n[libx264 @ 000002cc4d410340] i8 v,h,dc,ddl,ddr,vr,hd,vl,hu:  6%  2%  2% 12% 24% 16% 20%  8% 10%\n[libx264 @ 000002cc4d410340] i4 v,h,dc,ddl,ddr,vr,hd,vl,hu:  6%  2%  1% 13% 21% 16% 18% 10% 13%\n[libx264 @ 000002cc4d410340] i8c dc,h,v,p: 83% 11%  4%  2%\n[libx264 @ 000002cc4d410340] Weighted P-Frames: Y:0.0% UV:0.0%\n[libx264 @ 000002cc4d410340] ref P L0: 62.9%  6.0% 15.4%  7.5%  8.1%\n[libx264 @ 000002cc4d410340] ref B L0: 92.0%  7.8%  0.1%  0.0%\n[libx264 @ 000002cc4d410340] ref B L1: 99.0%  1.0%\n[libx264 @ 000002cc4d410340] kb/s:2718.56\n",
  "seconds": 12.68002963066101,
  "probe_out": {}
}